<svg id="brain" xmlns="http://www.w3.org/2000/svg" width="93.874" height="96" viewBox="0 0 93.874 96">
  <path id="Trazado_14" data-name="Trazado 14" d="M54.56,7.5a8.821,8.821,0,0,0-8.817,8.826c0,.254.013.5.034.753A12.663,12.663,0,0,0,31.229,33.9a12.662,12.662,0,0,0-6.337,22.825,8.828,8.828,0,0,0,1.171,17.062A13.195,13.195,0,0,0,43.526,92.629a10.022,10.022,0,0,0,19.85-1.976V16.326A8.822,8.822,0,0,0,54.56,7.5Z" transform="translate(-15.305 -6.094)" fill="#ffb591"/>
  <path id="Trazado_15" data-name="Trazado 15" d="M104.478,461.524a13.124,13.124,0,0,1-3.7,1.42,13.161,13.161,0,0,0,4.182.233A9.963,9.963,0,0,1,104.478,461.524Z" transform="translate(-81.881 -374.988)" fill="#e27f86"/>
  <path id="Trazado_16" data-name="Trazado 16" d="M191.943,7.5a8.789,8.789,0,0,0-2.813.461,8.827,8.827,0,0,1,6,8.365V90.654a10.034,10.034,0,0,1-7.211,9.63,10.022,10.022,0,0,0,12.836-9.63V16.326A8.821,8.821,0,0,0,191.943,7.5Z" transform="translate(-152.687 -6.094)" fill="#ef7856"/>
  <g id="Grupo_16" data-name="Grupo 16" transform="translate(47.928 1.406)">
    <path id="Trazado_17" data-name="Trazado 17" d="M441.528,281.284a8.824,8.824,0,0,0-10.163-13.19" transform="translate(-398.412 -218.871)" fill="#e6989e"/>
    <path id="Trazado_18" data-name="Trazado 18" d="M339.325,80.8a12.66,12.66,0,1,0-13.131-21.616" transform="translate(-312.961 -47.737)" fill="#e6989e"/>
    <path id="Trazado_19" data-name="Trazado 19" d="M337.889,363.633a13.2,13.2,0,1,0,19.359-17.546" transform="translate(-322.463 -282.602)" fill="#e6989e"/>
    <path id="Trazado_20" data-name="Trazado 20" d="M264.434,7.5a8.821,8.821,0,0,1,8.817,8.826c0,.254-.013.5-.034.753A12.663,12.663,0,0,1,287.765,33.9,12.662,12.662,0,0,1,294.1,56.722a8.828,8.828,0,0,1-1.171,17.062,13.195,13.195,0,0,1-17.463,18.845,10.022,10.022,0,0,1-19.85-1.976V16.326A8.821,8.821,0,0,1,264.434,7.5Z" transform="translate(-255.618 -7.5)" fill="#ffb591"/>
  </g>
  <path id="Trazado_21" data-name="Trazado 21" d="M302.863,470.993a10.059,10.059,0,0,1-5.353,4.635,10.016,10.016,0,0,0,11.366-5.81,13.154,13.154,0,0,1-2.136-.428A3.357,3.357,0,0,0,302.863,470.993Z" transform="translate(-241.727 -381.272)" fill="#e27f86"/>
  <path id="Trazado_22" data-name="Trazado 22" d="M323.7,64.042a8.824,8.824,0,0,0-5.991-7.319A12.662,12.662,0,0,0,311.377,33.9,12.652,12.652,0,0,0,296.828,17.08c.021-.248.034-.5.034-.753a8.817,8.817,0,0,0-12.184-8.158,8.827,8.827,0,0,1,6.559,8.533v.008a.61.61,0,0,0,.707.606,12.643,12.643,0,0,1,14.612,12.507q0,.638-.062,1.261a3.712,3.712,0,0,0,2.4,3.881A12.667,12.667,0,0,1,312.088,57.1a8.83,8.83,0,0,1,2.723,15.292,5.826,5.826,0,0,0-2.035,5.97,13.223,13.223,0,0,1-9.14,15.847,13.206,13.206,0,0,0,12.906-20.422,8.824,8.824,0,0,0,7.162-9.743Z" transform="translate(-231.301 -6.095)" fill="#ef7856"/>
  <path id="Trazado_23" data-name="Trazado 23" fill="none" stroke="#000" stroke-linecap="round" stroke-linejoin="round" stroke-miterlimit="10" stroke-width="15"/>
  <g id="Grupo_17" data-name="Grupo 17" transform="translate(2.126 0)">
    <path id="Trazado_24" data-name="Trazado 24" d="M332.389,326.205a1.406,1.406,0,1,0-.639-2.739,10.25,10.25,0,0,0-5.743,3.671,10.16,10.16,0,0,0-6.354-.556,1.406,1.406,0,1,0,.639,2.739,7.413,7.413,0,0,1,8.908,5.531,7.467,7.467,0,0,1,.191,1.459,1.406,1.406,0,0,0,1.4,1.363h.044a1.406,1.406,0,0,0,1.362-1.449,10.261,10.261,0,0,0-.264-2.01,10.134,10.134,0,0,0-3.5-5.6A7.433,7.433,0,0,1,332.389,326.205Z" transform="translate(-260.961 -262.786)" fill="#11111f"/>
    <path id="Trazado_25" data-name="Trazado 25" d="M120.185,295.759a11.275,11.275,0,0,1,5.728-9.457,1.406,1.406,0,0,0-1.377-2.453,14.089,14.089,0,0,0-7.108,10.95,14.155,14.155,0,0,0-7.29,6.939,1.406,1.406,0,1,0,2.54,1.207,11.319,11.319,0,0,1,4.8-5.055,14.027,14.027,0,0,0,4.15,8.279,1.406,1.406,0,1,0,1.961-2.016,11.206,11.206,0,0,1-3.407-8.306C120.184,295.818,120.186,295.789,120.185,295.759Z" transform="translate(-91.502 -230.481)" fill="#11111f"/>
    <path id="Trazado_26" data-name="Trazado 26" d="M294,121.219a1.406,1.406,0,1,0-.762,2.707A11.206,11.206,0,0,1,300.2,129.6c.013.026.025.052.04.078a11.275,11.275,0,0,1-.521,11.044,1.406,1.406,0,1,0,2.38,1.5,14.089,14.089,0,0,0,1.022-13.014,14.155,14.155,0,0,0,3.1-9.577,1.406,1.406,0,0,0-2.809.151,11.321,11.321,0,0,1-1.807,6.732A14.022,14.022,0,0,0,294,121.219Z" transform="translate(-239.551 -96.119)" fill="#11111f"/>
    <path id="Trazado_27" data-name="Trazado 27" d="M103.01,57.778a10.284,10.284,0,0,0-4.837-7.506,14.068,14.068,0,0,0-7.067-23.614A14.076,14.076,0,0,0,77.444,9.286c-.2,0-.4.006-.594.014l-.13.006c-.19.01-.379.023-.568.04h-.01a10.219,10.219,0,0,0-18.93-4.409,10.219,10.219,0,0,0-18.93,4.409,14.066,14.066,0,0,0-8,1.638,1.406,1.406,0,1,0,1.344,2.471,11.3,11.3,0,0,1,7.763-1.1l.035.005a11.128,11.128,0,0,1,3.843,1.655,1.406,1.406,0,1,0,1.576-2.33,13.934,13.934,0,0,0-3.773-1.8,7.409,7.409,0,0,1,14.729-.767c-.039.364-.061,21.575-.061,21.575a11.24,11.24,0,0,1-15.494-8.17,1.406,1.406,0,0,0-2.761.533,14.026,14.026,0,0,0,18.256,10.65s.021,51.638.061,52.027a8.613,8.613,0,0,1-16.743,1.442,14.587,14.587,0,0,0,3.971-3.958,1.406,1.406,0,1,0-2.331-1.573,11.816,11.816,0,0,1-3.508,3.4c.02.031.037.064.055.1a1.406,1.406,0,0,0-.5.169A11.794,11.794,0,0,1,20.712,69.158v0A11.814,11.814,0,0,1,23.4,65.973a1.406,1.406,0,1,0-1.8-2.163A14.686,14.686,0,0,0,19.385,66.1a7.421,7.421,0,0,1-.144-14.138l.007,0a7.363,7.363,0,0,1,3.2-.315,7.466,7.466,0,0,1,1.436.32,1.406,1.406,0,0,0,.882-2.671,10.274,10.274,0,0,0-5.674-.218,11.255,11.255,0,0,1,5.16-19.738A14.146,14.146,0,0,0,30.244,35.7a1.406,1.406,0,1,0,1.35-2.467,11.318,11.318,0,0,1-5-5.551,22.319,22.319,0,0,1-.863-4.333,11.207,11.207,0,0,1,1.919-6.293,1.406,1.406,0,1,0-2.331-1.573,14.1,14.1,0,0,0-2.009,11.17,14.068,14.068,0,0,0-7.066,23.614,10.234,10.234,0,0,0,1.6,18.274A14.6,14.6,0,0,0,36.542,88.537a11.422,11.422,0,0,0,20.669,1.639A11.421,11.421,0,0,0,77.88,88.537a14.6,14.6,0,0,0,11.313-.024,1.406,1.406,0,1,0-1.1-2.589,11.784,11.784,0,0,1-10.409-.61l-.03-.015a11.8,11.8,0,0,1-3.925-3.648A1.406,1.406,0,1,0,71.4,83.225a14.609,14.609,0,0,0,3.97,3.962A8.613,8.613,0,0,1,58.629,85.74c.04-.388.039-76.251,0-76.614a7.409,7.409,0,0,1,14.729.767,14.059,14.059,0,0,0-3.773,1.8,1.406,1.406,0,1,0,1.576,2.33,11.252,11.252,0,0,1,16.81,13.29c0,.008,0,.017-.008.025a11.277,11.277,0,0,1-5.134,5.9A1.406,1.406,0,1,0,84.178,35.7a14.094,14.094,0,0,0,5.985-6.365,11.257,11.257,0,0,1,5.16,19.739,10.258,10.258,0,0,0-5.673.216,1.406,1.406,0,0,0,.882,2.671,7.477,7.477,0,0,1,1.436-.32,7.368,7.368,0,0,1,3.205.315l.007,0A7.421,7.421,0,0,1,95.038,66.1a14.659,14.659,0,0,0-2.214-2.291,1.406,1.406,0,0,0-1.8,2.163,11.817,11.817,0,0,1,2.335,2.619c.044.067.088.134.131.2s.1.158.144.238a11.809,11.809,0,0,1-1.261,13.79,1.406,1.406,0,1,0,2.117,1.851,14.633,14.633,0,0,0,2.083-16.127,10.248,10.248,0,0,0,6.437-10.767Z" transform="translate(-11.337 0)" fill="#11111f"/>
  </g>
</svg>
