<svg xmlns="http://www.w3.org/2000/svg" width="108.004" height="75.21" viewBox="0 0 108.004 75.21">
  <g id="gamepad" transform="translate(0 -77.732)">
    <g id="Grupo_18" data-name="Grupo 18" transform="translate(1.581 79.305)">
      <path id="Trazado_28" data-name="Trazado 28" d="M110.831,129.7,99.471,97.9A19.154,19.154,0,0,0,81.433,85.191H38.409A19.154,19.154,0,0,0,20.372,97.9L9.012,129.7a26.016,26.016,0,0,0,3.257,23.771,8.938,8.938,0,0,0,14.56.051L38.112,137.8a7.449,7.449,0,0,1,6.052-3.106H75.679a7.449,7.449,0,0,1,6.052,3.106l11.283,15.723a8.938,8.938,0,0,0,14.56-.051A26.017,26.017,0,0,0,110.831,129.7Z" transform="translate(-7.495 -85.191)" fill="#ffb591"/>
    </g>
    <g id="Grupo_20" data-name="Grupo 20" transform="translate(62.509 79.305)">
      <g id="Grupo_19" data-name="Grupo 19" transform="translate(0 0)">
        <path id="Trazado_29" data-name="Trazado 29" d="M338.734,129.7l-11.36-31.8a19.154,19.154,0,0,0-18.038-12.711h-13.01A19.4,19.4,0,0,1,309.82,97.464l11.5,32.206a26.345,26.345,0,0,1-1.872,21.816l1.464,2.04a8.938,8.938,0,0,0,14.56-.051A26.015,26.015,0,0,0,338.734,129.7Z" transform="translate(-296.326 -85.191)" fill="#f48d6a"/>
      </g>
    </g>
    <g id="Grupo_21" data-name="Grupo 21" transform="translate(20.757 86.802)">
      <path id="Trazado_30" data-name="Trazado 30" d="M115.56,126.487h-4.054a.426.426,0,0,1-.426-.426v-4.054a1.277,1.277,0,0,0-1.277-1.277h-4.37a1.277,1.277,0,0,0-1.277,1.277v4.054a.426.426,0,0,1-.426.426H99.679a1.277,1.277,0,0,0-1.277,1.277v4.37a1.277,1.277,0,0,0,1.277,1.277h4.054a.426.426,0,0,1,.426.426v4.054a1.277,1.277,0,0,0,1.277,1.277h4.37a1.277,1.277,0,0,0,1.277-1.277v-4.054a.426.426,0,0,1,.426-.426h4.054a1.277,1.277,0,0,0,1.277-1.277v-4.37A1.277,1.277,0,0,0,115.56,126.487Z" transform="translate(-98.402 -120.731)" fill="#94949c"/>
    </g>
    <g id="Grupo_23" data-name="Grupo 23" transform="translate(26.514 92.559)">
      <g id="Grupo_22" data-name="Grupo 22">
        <path id="Trazado_31" data-name="Trazado 31" d="M137.092,148.018h-1.5v2.871a1.277,1.277,0,0,1-1.277,1.277h-2.989a1.49,1.49,0,0,0-1.49,1.49v2.989a1.277,1.277,0,0,1-1.277,1.277H125.69v1.5a1.277,1.277,0,0,0,1.277,1.277h4.37a1.277,1.277,0,0,0,1.277-1.277v-4.054a.426.426,0,0,1,.426-.426h4.054a1.277,1.277,0,0,0,1.277-1.277v-4.37a1.277,1.277,0,0,0-1.277-1.277Z" transform="translate(-125.69 -148.018)" fill="#302f3e"/>
      </g>
    </g>
    <g id="Grupo_24" data-name="Grupo 24" transform="translate(58.106 106.996)">
      <path id="Trazado_79" data-name="Trazado 79" d="M7.746,0A7.746,7.746,0,1,1,0,7.746,7.746,7.746,0,0,1,7.746,0Z" fill="#94949c"/>
    </g>
    <g id="Grupo_25" data-name="Grupo 25" transform="translate(34.406 106.996)">
      <path id="Trazado_78" data-name="Trazado 78" d="M7.746,0A7.746,7.746,0,1,1,0,7.746,7.746,7.746,0,0,1,7.746,0Z" fill="#94949c"/>
    </g>
    <g id="Grupo_26" data-name="Grupo 26" transform="translate(58.345 107.235)">
      <path id="Trazado_32" data-name="Trazado 32" d="M286.006,217.591a7.751,7.751,0,0,1-9.42,9.42,7.747,7.747,0,1,0,9.42-9.42Z" transform="translate(-276.586 -217.591)" fill="#302f3e"/>
    </g>
    <g id="Grupo_27" data-name="Grupo 27" transform="translate(34.645 107.235)">
      <path id="Trazado_33" data-name="Trazado 33" d="M173.657,217.591a7.751,7.751,0,0,1-9.42,9.42,7.747,7.747,0,1,0,9.42-9.42Z" transform="translate(-164.237 -217.591)" fill="#302f3e"/>
    </g>
    <path id="Trazado_77" data-name="Trazado 77" d="M4.606,0A4.606,4.606,0,1,1,0,4.606,4.606,4.606,0,0,1,4.606,0Z" transform="translate(49.435 89.527)" fill="#94949c"/>
    <path id="Trazado_34" data-name="Trazado 34" d="M242.146,135.4a4.608,4.608,0,0,1-6.046,6.046,4.607,4.607,0,1,0,6.046-6.046Z" transform="translate(-186.296 -45.503)" fill="#302f3e"/>
    <path id="Trazado_35" data-name="Trazado 35" d="M121.167,267.426l-2.136-5.979a1.574,1.574,0,1,0-2.964,1.059l2.136,5.979a24.468,24.468,0,0,1-3.06,22.334,7.365,7.365,0,0,1-12,.042L91.863,275.137a9.042,9.042,0,0,0-7.33-3.762H53.018a9.042,9.042,0,0,0-7.33,3.762L34.405,290.86a7.281,7.281,0,0,1-5.982,3.071H28.4a7.281,7.281,0,0,1-5.988-3.113c-.271-.384-.535-.78-.783-1.177a1.574,1.574,0,0,0-2.67,1.666c.28.448.577.9.883,1.328a10.393,10.393,0,0,0,8.546,4.443h.039a10.393,10.393,0,0,0,8.539-4.383l11.283-15.723a5.888,5.888,0,0,1,4.773-2.45H84.533a5.888,5.888,0,0,1,4.773,2.45l11.283,15.723a10.392,10.392,0,0,0,8.539,4.383h.039a10.393,10.393,0,0,0,8.546-4.443A27.618,27.618,0,0,0,121.167,267.426Z" transform="translate(-14.768 -144.136)" fill="#11111f"/>
    <path id="Trazado_36" data-name="Trazado 36" d="M4.092,139.275a24.308,24.308,0,0,1,.487-14.927l11.36-31.8A17.618,17.618,0,0,1,32.5,80.879H75.519A17.618,17.618,0,0,1,92.075,92.546l6.824,19.1a1.574,1.574,0,1,0,2.964-1.059l-6.824-19.1A20.772,20.772,0,0,0,75.519,77.732H32.5A20.771,20.771,0,0,0,12.976,91.487l-11.36,31.8a27.438,27.438,0,0,0-.55,16.849,1.574,1.574,0,0,0,3.027-.863Z" transform="translate(0)" fill="#11111f"/>
    <path id="Trazado_37" data-name="Trazado 37" d="M99.548,134.853h4.37A2.854,2.854,0,0,0,106.768,132V129.1h2.906a2.854,2.854,0,0,0,2.851-2.851v-4.37a2.854,2.854,0,0,0-2.851-2.851h-2.906v-2.905a2.854,2.854,0,0,0-2.851-2.851h-4.37a2.854,2.854,0,0,0-2.851,2.851v2.905H93.792a2.854,2.854,0,0,0-2.851,2.851v4.37a2.854,2.854,0,0,0,2.851,2.851H96.7V132A2.854,2.854,0,0,0,99.548,134.853Zm-5.459-8.9v-3.776h3.757a2,2,0,0,0,2-2v-3.757h3.776v3.757a2,2,0,0,0,2,2h3.757v3.776H105.62a2,2,0,0,0-2,2v3.757H99.845v-3.757a2,2,0,0,0-2-2Z" transform="translate(-71.757 -28.041)" fill="#11111f"/>
    <path id="Trazado_38" data-name="Trazado 38" d="M359.859,125.033a2.586,2.586,0,1,0,2.586,2.586A2.586,2.586,0,0,0,359.859,125.033Z" transform="translate(-281.908 -37.323)" fill="#11111f"/>
    <path id="Trazado_39" data-name="Trazado 39" d="M359.859,184.685a2.586,2.586,0,1,0-2.586-2.586A2.586,2.586,0,0,0,359.859,184.685Z" transform="translate(-281.908 -80.311)" fill="#11111f"/>
    <circle id="Elipse_33" data-name="Elipse 33" cx="2.586" cy="2.586" r="2.586" transform="translate(81.111 93.456)" fill="#11111f"/>
    <path id="Trazado_40" data-name="Trazado 40" d="M335.2,154.859a2.586,2.586,0,1,0-2.586,2.586A2.586,2.586,0,0,0,335.2,154.859Z" transform="translate(-260.414 -58.817)" fill="#11111f"/>
    <path id="Trazado_41" data-name="Trazado 41" d="M277.314,227.639a9.32,9.32,0,1,0-9.32-9.32A9.33,9.33,0,0,0,277.314,227.639Zm0-15.492a6.172,6.172,0,1,1-6.172,6.172A6.179,6.179,0,0,1,277.314,212.147Z" transform="translate(-211.462 -103.578)" fill="#11111f"/>
    <path id="Trazado_42" data-name="Trazado 42" d="M164.966,224.49a6.114,6.114,0,0,1-2.644-.593,1.574,1.574,0,1,0-1.35,2.843,9.321,9.321,0,1,0-5.325-8.422,9.406,9.406,0,0,0,.1,1.375,1.574,1.574,0,1,0,3.113-.461,6.256,6.256,0,0,1-.067-.914,6.172,6.172,0,1,1,6.172,6.172Z" transform="translate(-122.814 -103.576)" fill="#11111f"/>
    <g id="Grupo_28" data-name="Grupo 28" transform="translate(47.853 87.945)">
      <path id="Trazado_43" data-name="Trazado 43" d="M233.037,138.526a6.188,6.188,0,1,1,6.188-6.188A6.2,6.2,0,0,1,233.037,138.526Zm0-9.212a3.024,3.024,0,1,0,3.024,3.024A3.028,3.028,0,0,0,233.037,129.313Z" transform="translate(-226.849 -126.149)" fill="#11111f"/>
    </g>
  </g>
</svg>
