<svg xmlns="http://www.w3.org/2000/svg" width="105.762" height="108.726" viewBox="0 0 105.762 108.726">
  <g id="lightbulb" transform="translate(-6.963)">
    <g id="Grupo_30" data-name="Grupo 30" transform="translate(6.963 0)">
      <path id="Trazado_44" data-name="Trazado 44" d="M226.478,460.583V463.3a6.5,6.5,0,0,1-.038.709,6.388,6.388,0,0,1-6.347,5.676H210.3a6.388,6.388,0,0,1-6.347-5.676,6.5,6.5,0,0,1-.038-.709v-2.714a6.777,6.777,0,0,0,2.767.585h17.027A6.777,6.777,0,0,0,226.478,460.583Z" transform="translate(-161.997 -362.552)" fill="#94949c"/>
      <g id="Grupo_29" data-name="Grupo 29" transform="translate(0 0)">
        <path id="Trazado_45" data-name="Trazado 45" d="M249.513,13.954a1.6,1.6,0,0,1-1.6-1.6V1.6a1.6,1.6,0,1,1,3.193,0V12.358a1.6,1.6,0,0,1-1.6,1.6Z" transform="translate(-196.632 0)" fill="#ffe7c9"/>
        <path id="Trazado_46" data-name="Trazado 46" d="M86.743,81.377a1.592,1.592,0,0,1-1.129-.467L78,73.3a1.6,1.6,0,0,1,2.258-2.258l7.61,7.61a1.6,1.6,0,0,1-1.129,2.725Z" transform="translate(-62.515 -55.553)" fill="#ffe7c9"/>
        <path id="Trazado_47" data-name="Trazado 47" d="M19.321,244.146H8.559a1.6,1.6,0,1,1,0-3.193H19.321a1.6,1.6,0,0,1,0,3.193Z" transform="translate(-6.963 -189.668)" fill="#ffe7c9"/>
        <path id="Trazado_48" data-name="Trazado 48" d="M79.133,386.382A1.6,1.6,0,0,1,78,383.657l7.61-7.61a1.6,1.6,0,0,1,2.258,2.258l-7.61,7.61A1.592,1.592,0,0,1,79.133,386.382Z" transform="translate(-62.515 -295.641)" fill="#ffe7c9"/>
        <path id="Trazado_49" data-name="Trazado 49" d="M391.748,386.382a1.592,1.592,0,0,1-1.129-.467l-7.61-7.61a1.6,1.6,0,1,1,2.258-2.258l7.61,7.61a1.6,1.6,0,0,1-1.129,2.725Z" transform="translate(-302.603 -295.641)" fill="#ffe7c9"/>
        <path id="Trazado_50" data-name="Trazado 50" d="M450.665,244.146H439.9a1.6,1.6,0,0,1,0-3.193h10.762a1.6,1.6,0,1,1,0,3.193Z" transform="translate(-346.499 -189.668)" fill="#ffe7c9"/>
        <path id="Trazado_51" data-name="Trazado 51" d="M384.138,81.377a1.6,1.6,0,0,1-1.129-2.725l7.61-7.61a1.6,1.6,0,0,1,2.258,2.258l-7.61,7.61A1.591,1.591,0,0,1,384.138,81.377Z" transform="translate(-302.603 -55.553)" fill="#ffe7c9"/>
      </g>
      <path id="Trazado_52" data-name="Trazado 52" d="M215.2,453.333s-10.436,1.92-11.281,1.543v2.714a6.5,6.5,0,0,0,.038.709,6.388,6.388,0,0,0,6.347,5.676h2.767a6.389,6.389,0,0,1-6.019-4.248.641.641,0,0,1,.6-.86h16.061a6.776,6.776,0,0,0,2.729-.568,6.5,6.5,0,0,0,.038-.709v-2.714C225.633,455.253,215.2,453.333,215.2,453.333Z" transform="translate(-161.997 -356.845)" fill="#302f3e"/>
      <path id="Trazado_53" data-name="Trazado 53" d="M215.125,385.678a6.8,6.8,0,0,1-6.811,6.811H191.287a6.8,6.8,0,0,1-6.811-6.811s-.1-9.948-.119-10.208v-.009l15.444-2.128,15.267,2.128Z" transform="translate(-146.6 -293.873)" fill="#94949c"/>
      <path id="Trazado_54" data-name="Trazado 54" d="M196.608,400.36h-5.321a6.805,6.805,0,0,1-6.811-6.811s-.1-9.948-.119-10.208v-.009h5.321v.009c.019.26.119,10.208.119,10.208a6.8,6.8,0,0,0,6.811,6.811Z" transform="translate(-146.6 -301.744)" fill="#302f3e"/>
      <path id="Trazado_55" data-name="Trazado 55" d="M302.941,419.026h-5.427a1.6,1.6,0,0,1,0-3.193h5.41l.009,1.6Z" transform="translate(-234.416 -327.327)" fill="#2b597f"/>
      <path id="Trazado_56" data-name="Trazado 56" d="M204.144,417.429a1.6,1.6,0,0,1-1.6,1.6H184.773l-.036-3.193h17.811A1.6,1.6,0,0,1,204.144,417.429Z" transform="translate(-146.899 -327.327)" fill="#2b597f"/>
      <path id="Trazado_57" data-name="Trazado 57" d="M144.706,90.488h0c-16.438-.253-30.261,14.074-29.966,30.392a30.531,30.531,0,0,0,8.639,21.359c3.148,3.237,5.872,6.23,6.175,10.576l30.711.051c.172-4.474,2.716-7.5,5.885-10.806a30.527,30.527,0,0,0,8.467-21.18A30.167,30.167,0,0,0,144.706,90.488Z" transform="translate(-91.797 -71.226)" fill="#ffb591"/>
      <path id="Trazado_58" data-name="Trazado 58" d="M160.263,152.859v.009l-30.711-.051c-.3-4.346-3.027-7.339-6.174-10.576a30.531,30.531,0,0,1-8.639-21.359c-.3-16.319,13.528-30.645,29.966-30.392.83,0,1.652.036,2.465.1-15.15,1.328-27.388,14.926-27.11,30.289a30.531,30.531,0,0,0,8.639,21.359c3.148,3.237,5.872,6.23,6.174,10.576Z" transform="translate(-91.796 -71.228)" fill="#ef7856"/>
    </g>
    <g id="Grupo_31" data-name="Grupo 31" transform="translate(6.963 0)">
      <path id="Trazado_60" data-name="Trazado 60" d="M249.513,13.954a1.6,1.6,0,0,0,1.6-1.6V1.6a1.6,1.6,0,1,0-3.193,0V12.358A1.6,1.6,0,0,0,249.513,13.954Z" transform="translate(-196.632 0)" fill="#ffb591"/>
      <path id="Trazado_61" data-name="Trazado 61" d="M85.614,80.909a1.6,1.6,0,1,0,2.258-2.258l-7.61-7.61A1.6,1.6,0,0,0,78,73.3Z" transform="translate(-62.515 -55.553)" fill="#ffb591"/>
      <path id="Trazado_62" data-name="Trazado 62" d="M19.321,240.953H8.559a1.6,1.6,0,1,0,0,3.193H19.321a1.6,1.6,0,0,0,0-3.193Z" transform="translate(-6.963 -189.668)" fill="#ffb591"/>
      <path id="Trazado_63" data-name="Trazado 63" d="M85.614,376.047,78,383.657a1.6,1.6,0,0,0,2.258,2.258l7.61-7.61a1.6,1.6,0,0,0-2.258-2.258Z" transform="translate(-62.515 -295.641)" fill="#ffb591"/>
      <path id="Trazado_64" data-name="Trazado 64" d="M385.267,376.046a1.6,1.6,0,1,0-2.258,2.258l7.61,7.61a1.6,1.6,0,0,0,2.258-2.258Z" transform="translate(-302.604 -295.64)" fill="#ffb591"/>
      <path id="Trazado_65" data-name="Trazado 65" d="M450.665,240.953H439.9a1.6,1.6,0,0,0,0,3.193h10.762a1.6,1.6,0,1,0,0-3.193Z" transform="translate(-346.499 -189.668)" fill="#ffb591"/>
      <path id="Trazado_66" data-name="Trazado 66" d="M390.62,71.041l-7.61,7.61a1.6,1.6,0,1,0,2.258,2.258l7.61-7.61a1.6,1.6,0,0,0-2.258-2.258Z" transform="translate(-302.604 -55.553)" fill="#ffb591"/>
      <path id="Trazado_67" data-name="Trazado 67" d="M170.325,114.988C170.325,97.35,156.178,83,138.79,83a31.1,31.1,0,0,0-17.1,5.1,31.92,31.92,0,0,0-11.424,13.218,1.6,1.6,0,0,0,2.893,1.35,28.276,28.276,0,0,1,53.969,12.316,28.884,28.884,0,0,1-8.025,20.077c-2.983,3.115-5.521,6.091-6.174,10.262H125.064c-.823-4.329-3.776-7.367-6.43-10.094a28.859,28.859,0,0,1-8.186-20.244,29.493,29.493,0,0,1,.536-5.6,1.6,1.6,0,1,0-3.134-.608,32.675,32.675,0,0,0-.594,6.208,32.035,32.035,0,0,0,9.091,22.471c3.367,3.46,5.75,6.222,5.75,10.27,0,.014,0,.029,0,.043l.092,9.368a8.411,8.411,0,0,0,4.044,7.184v1.756a7.99,7.99,0,0,0,7.982,7.982H144a7.99,7.99,0,0,0,7.982-7.982v-1.756a8.411,8.411,0,0,0,4.044-7.184S156.019,146.7,156,146.6c.3-3.7,2.545-6.329,5.416-9.328A32.063,32.063,0,0,0,170.325,114.988Zm-21.531,51.09A4.794,4.794,0,0,1,144,170.868h-9.791a4.794,4.794,0,0,1-4.789-4.789v-.615a8.427,8.427,0,0,0,1.171.083h17.027a8.46,8.46,0,0,0,1.171-.083Zm-1.171-3.725H130.6a5.22,5.22,0,0,1-5.215-5.215v-.106h16.176a1.6,1.6,0,0,0,0-3.193H125.381v-5.321h27.407l.049,5.321h-3.831a1.6,1.6,0,1,0,0,3.193h3.831v.106A5.22,5.22,0,0,1,147.623,162.354Z" transform="translate(-85.909 -65.334)" fill="#11111f"/>
    </g>
  </g>
</svg>
