<svg xmlns="http://www.w3.org/2000/svg" width="99.938" height="99.936" viewBox="0 0 99.938 99.936">
  <g id="strong" transform="translate(0 -0.004)">
    <g id="Grupo_33" data-name="Grupo 33" transform="translate(1.463 1.581)">
      <path id="Trazado_69" data-name="Trazado 69" d="M49.532,90.426a58.562,58.562,0,0,1-35.24-14.235,1.172,1.172,0,0,0-.8-.317H10.729A3.234,3.234,0,0,1,7.6,71.817c8.376-31.593,28.293-48.969,30.427-50.76a1.172,1.172,0,0,0,.3-.379,24.164,24.164,0,0,1,15.4-12.561,1.169,1.169,0,0,1,1.115.307l13.14,13.14a1.171,1.171,0,0,1-.126,1.765L56.9,31.543a1.171,1.171,0,0,1-1.614-.2L53.423,29.03a1.168,1.168,0,0,0-1.48-.287,15.676,15.676,0,0,1-6.316,1.8,1.168,1.168,0,0,0-1.057,1.031L41.934,54.411a1.172,1.172,0,0,0,1.6,1.223A33.8,33.8,0,0,1,56,53.239a31.884,31.884,0,0,1,16.265,4.3,1.169,1.169,0,0,0,1.684-.552C78.215,46.747,89.685,40.657,103.3,40.319a1.173,1.173,0,0,1,1.2,1.172v62.314a1.171,1.171,0,0,1-1.171,1.171H95.685c-8.819,0-16.5-7.343-20.53-18.207a1.169,1.169,0,0,0-1.621-.646C70.553,87.625,62.01,91.206,49.532,90.426Z" transform="translate(-7.492 -8.081)" fill="#ffdaaa"/>
      <path id="Trazado_70" data-name="Trazado 70" d="M49.532,90.426a58.562,58.562,0,0,1-35.24-14.235,1.172,1.172,0,0,0-.8-.317H10.729A3.234,3.234,0,0,1,7.6,71.817c8.376-31.593,28.293-48.969,30.427-50.76a1.172,1.172,0,0,0,.3-.379,24.164,24.164,0,0,1,15.4-12.561,1.169,1.169,0,0,1,1.115.307l13.14,13.14a1.171,1.171,0,0,1-.126,1.765L56.9,31.543a1.171,1.171,0,0,1-1.614-.2L53.423,29.03a1.168,1.168,0,0,0-1.48-.287,15.676,15.676,0,0,1-6.316,1.8,1.168,1.168,0,0,0-1.057,1.031L41.934,54.411a1.172,1.172,0,0,0,1.6,1.223A33.8,33.8,0,0,1,56,53.239a31.884,31.884,0,0,1,16.265,4.3,1.169,1.169,0,0,0,1.684-.552C78.215,46.747,89.685,40.657,103.3,40.319a1.173,1.173,0,0,1,1.2,1.172v62.314a1.171,1.171,0,0,1-1.171,1.171H95.685c-8.819,0-16.5-7.343-20.53-18.207a1.169,1.169,0,0,0-1.621-.646C70.553,87.625,62.01,91.206,49.532,90.426Z" transform="translate(-7.492 -8.081)" fill="#ffb591"/>
      <g id="Grupo_32" data-name="Grupo 32" transform="translate(29.944 0)">
        <path id="Trazado_71" data-name="Trazado 71" d="M242.72,21.565a1.171,1.171,0,0,1-.126,1.765l-9.058,6.794.984,1.218a1.171,1.171,0,0,0,1.614.2l10.95-8.213a1.171,1.171,0,0,0,.126-1.765L234.07,8.425a1.169,1.169,0,0,0-1.115-.307,21.8,21.8,0,0,0-2.763.918Z" transform="translate(-216.667 -8.081)" fill="#ffbe8a"/>
        <path id="Trazado_72" data-name="Trazado 72" d="M479.968,173.244q-1.9.047-3.748.243a1.171,1.171,0,0,1,.458.929v62.314a1.171,1.171,0,0,1-1.171,1.171H480a1.171,1.171,0,0,0,1.171-1.171V174.417a1.173,1.173,0,0,0-1.2-1.172Z" transform="translate(-414.101 -141.006)" fill="#ef7856"/>
        <path id="Trazado_73" data-name="Trazado 73" d="M166.733,121.61a18.442,18.442,0,0,1-2.126.305,1.168,1.168,0,0,0-1.057,1.031l-2.635,22.834a1.172,1.172,0,0,0,1.6,1.223c.756-.306,1.73-.661,2.887-1a1.193,1.193,0,0,1,0-.221l2.58-22.354.055-.48c0-.035.014-.068.021-.1Z" transform="translate(-160.906 -99.451)" fill="#ef7856"/>
      </g>
      <path id="Trazado_74" data-name="Trazado 74" d="M116.413,83.436l14.436,12.876,1.381-11.967a1.169,1.169,0,0,1,.315-.669l-6.686-10.029a1.156,1.156,0,0,1-.17.178A78.187,78.187,0,0,0,116.413,83.436Z" transform="translate(-95.153 -60.849)" fill="#94949c"/>
      <path id="Trazado_75" data-name="Trazado 75" d="M175.062,121.632c.005-.013.009-.026.015-.038a1.172,1.172,0,0,1,.208-.3l-.6-.906a17.931,17.931,0,0,1-3.143.544,1.168,1.168,0,0,0-1.057,1.031l-.962,8.336,4.07,3.631,1.381-11.967a1.045,1.045,0,0,1,.092-.329Z" transform="translate(-137.893 -98.465)" fill="#302f3e"/>
    </g>
    <path id="Trazado_76" data-name="Trazado 76" d="M98.474,32.34a41.2,41.2,0,0,0-20.31,4.94A26.3,26.3,0,0,0,66.695,49.626,33.252,33.252,0,0,0,49.97,45.275a34.125,34.125,0,0,0-12.555,2.317l1.443-12.506,1.108-9.6a16.553,16.553,0,0,0,6.446-1.836l2.418,2.994a1.464,1.464,0,0,0,2.017.251l12.935-9.7a1.464,1.464,0,0,0,.157-2.206L49.388.433A1.467,1.467,0,0,0,48.1.026a25.362,25.362,0,0,0-17.09,13.449A85.058,85.058,0,0,0,19.04,26.44,110.519,110.519,0,0,0,.16,64.928a4.7,4.7,0,0,0,4.54,5.91H7.345a51.925,51.925,0,0,0,10.4,7.232,1.464,1.464,0,0,0,1.391-2.576,54.12,54.12,0,0,1-7.381-4.78,1.464,1.464,0,0,0-.587-2.8H4.7a1.773,1.773,0,0,1-1.71-2.231A107.584,107.584,0,0,1,21.3,28.3q.812-1.062,1.6-2.036L35.618,37.624,34.3,49.033c-.424.227-.844.46-1.254.707a1.464,1.464,0,1,0,1.508,2.509A30.285,30.285,0,0,1,49.97,48.2c7.076,0,13.8,2.267,18.455,6.221a1.464,1.464,0,0,0,1.9-2.231q-.554-.471-1.142-.911c3.813-9.421,14.516-15.57,27.832-15.99V97.013H89.655c-7.988,0-15.273-6.63-19.207-17.386a35.146,35.146,0,0,0,7.821-6.565,17.828,17.828,0,0,1,2.573,9.247,1.464,1.464,0,0,0,2.928,0,20.756,20.756,0,0,0-4.107-12.417,1.45,1.45,0,0,0-.2-.262A20.843,20.843,0,0,0,62.9,61.443H56.437a1.464,1.464,0,0,0,0,2.928H62.9A17.9,17.9,0,0,1,76.51,70.632a32.211,32.211,0,0,1-8.444,7.021,1.427,1.427,0,0,0-.193.108c-6.57,3.721-14.69,5.3-24.279,4.7a59.3,59.3,0,0,1-19.037-4.392,1.464,1.464,0,0,0-1.12,2.7,62.219,62.219,0,0,0,19.975,4.609q2.042.128,4.008.127a47.09,47.09,0,0,0,17.113-2.949q1.718-.668,3.332-1.487C72.277,92.759,80.515,99.94,89.655,99.94h8.819a1.464,1.464,0,0,0,1.464-1.464V33.8a1.464,1.464,0,0,0-1.464-1.464ZM47.9,3.081l12.78,12.78L50.221,23.7,48.8,21.939a9.061,9.061,0,0,0,2.586-3.926,1.464,1.464,0,1,0-2.825-.77,6.688,6.688,0,0,1-2.6,3.234,1.473,1.473,0,0,0-.142.1h0A13.03,13.03,0,0,1,39.4,22.591L33.876,14.3A22.921,22.921,0,0,1,47.9,3.081ZM24.77,24.01a82.216,82.216,0,0,1,7.12-7.41l5.246,7.869-1.107,9.6Z" transform="translate(0 0)" fill="#11111f"/>
  </g>
</svg>
